<?xml version="1.0" encoding="UTF-8"?>
<svg version="1.1" xmlns="http://www.w3.org/2000/svg" width="98" height="110">
<path d="M0 0 C2.98082065 1.68041585 5.87000619 3.43338429 8.74023438 5.29296875 C11.61229312 7.04445376 13.6082856 8 17 8 C21.36429816 6.54523395 25.03812571 4.17809561 28.87695312 1.70703125 C31.43000962 0.1466747 33.38182002 -0.99299796 36.4140625 -1.02734375 C40.24975269 0.49650296 43.75229481 2.48491824 47.3125 4.5625 C48.42334961 5.19961914 48.42334961 5.19961914 49.55664062 5.84960938 C51.37468118 6.89351653 53.18783748 7.94592192 55 9 C57.08802089 30.01364454 57.08802089 30.01364454 52.984375 35.8828125 C50.20860609 37.53788327 47.44696385 38.77372057 44.43359375 39.9296875 C41.39335009 41.26680911 38.62993316 42.91784692 35.78125 44.625 C34.67773193 45.28161621 33.57421387 45.93823242 32.43725586 46.61474609 C30.20920245 47.94193931 27.98340135 49.27292188 25.76000977 50.60791016 C24.71643311 51.20394043 23.67285645 51.7999707 22.59765625 52.4140625 C21.66445557 52.9601416 20.73125488 53.5062207 19.76977539 54.06884766 C16.07240937 55.31184052 14.5153225 54.58982581 11 53 C8.97550269 51.95044117 6.97862529 50.84641535 5.0078125 49.69921875 C3.89019531 49.05146484 2.77257812 48.40371094 1.62109375 47.73632812 C0.45572153 47.05339845 -0.70964301 46.37045566 -1.875 45.6875 C-3.03227594 45.01580005 -4.18982606 44.34457226 -5.34765625 43.67382812 C-7.57495612 42.37820087 -9.79385423 41.06799825 -12.00317383 39.74194336 C-14.88382074 38.00669088 -14.88382074 38.00669088 -17.56518555 36.80688477 C-19.80135689 35.71112339 -21.33754774 34.85657965 -23 33 C-24.18671312 29.1558642 -24.16523633 25.55919377 -24.0625 21.5625 C-24.10181641 20.53833984 -24.14113281 19.51417969 -24.18164062 18.45898438 C-24.12964353 11.15575662 -24.12964353 11.15575662 -21.08837891 8.04418945 C-18.78842368 6.49985215 -16.48308036 5.22374463 -14 4 C-12.67742188 3.15115234 -12.67742188 3.15115234 -11.328125 2.28515625 C-10.64234375 1.88167969 -9.9565625 1.47820313 -9.25 1.0625 C-8.55390625 0.64097656 -7.8578125 0.21945313 -7.140625 -0.21484375 C-4.24898775 -1.27546252 -2.92593754 -0.97245655 0 0 Z " fill="#DDC426" transform="translate(23,55)"/>
<path d="M0 0 C1.86031679 0.93611982 3.69393699 1.92601081 5.5078125 2.94921875 C7.11269531 3.85124023 7.11269531 3.85124023 8.75 4.77148438 C9.86375 5.40376953 10.9775 6.03605469 12.125 6.6875 C13.21554688 7.30044922 14.30609375 7.91339844 15.4296875 8.54492188 C17.59574045 9.76656538 19.75309131 11.00377653 21.90112305 12.25683594 C24.93714481 14.02210862 24.93714481 14.02210862 27.98364258 15.36035156 C34.4461688 18.49138688 34.4461688 18.49138688 35.984375 22.68139648 C36.46367393 25.98048394 36.5388825 29.0434113 36.4375 32.375 C36.42372314 33.50301025 36.40994629 34.63102051 36.39575195 35.79321289 C35.86648546 44.93697915 35.86648546 44.93697915 32.171875 48.34765625 C29.02142066 50.50234765 25.60640559 51.77391192 22 53 C21.01 53.66 20.02 54.32 19 55 C13.13990153 54.74992467 8.89660497 51.77978447 4.12304688 48.70703125 C1.52000397 47.11612441 -0.40838244 46 -3.5 46 C-7.52998437 47.61199375 -11.11077249 49.9414864 -14.74023438 52.29296875 C-17.58141144 54.02562099 -19.59901067 54.99681754 -22.953125 55.0234375 C-26.9392276 53.68451586 -30.26700917 51.73452398 -33.8125 49.5 C-34.8324707 48.87544922 -34.8324707 48.87544922 -35.87304688 48.23828125 C-41.86515623 44.54623381 -41.86515623 44.54623381 -42.49438477 41.99731445 C-43.68833278 34.962085 -44.58625123 27.79946856 -42 21 C-36.41423383 14.90178994 -28.42987266 11.71023089 -21.00097656 8.38671875 C-17.05781675 6.56462733 -13.42826118 4.36025897 -9.75 2.0625 C-4.0340522 -1.39977186 -4.0340522 -1.39977186 0 0 Z " fill="#D8C627" transform="translate(63,1)"/>
<path d="M0 0 C2.06232303 0.81854035 3.93501768 1.74570017 5.86083984 2.84838867 C6.56982422 3.2512207 7.27880859 3.65405273 8.00927734 4.0690918 C8.73888672 4.4899707 9.46849609 4.91084961 10.22021484 5.34448242 C10.96529297 5.76922852 11.71037109 6.19397461 12.47802734 6.6315918 C14.31120446 7.67744284 16.14104161 8.72914434 17.97021484 9.78198242 C17.97021484 10.44198242 17.97021484 11.10198242 17.97021484 11.78198242 C16.18139749 12.78707043 14.38906789 13.78590978 12.59521484 14.78198242 C11.59748047 15.33885742 10.59974609 15.89573242 9.57177734 16.46948242 C6.97021484 17.78198242 6.97021484 17.78198242 4.97021484 17.78198242 C4.97021484 18.44198242 4.97021484 19.10198242 4.97021484 19.78198242 C2.99021484 20.77198242 2.99021484 20.77198242 0.97021484 21.78198242 C0.97021484 22.77198242 0.97021484 23.76198242 0.97021484 24.78198242 C1.83646484 25.02948242 2.70271484 25.27698242 3.59521484 25.53198242 C7.21686682 26.87333501 9.94190731 28.3875067 12.97021484 30.78198242 C13.63818359 32.91479492 13.63818359 32.91479492 13.97021484 34.78198242 C12.51572084 35.78755852 11.05649041 36.78628677 9.59521484 37.78198242 C8.78310547 38.33885742 7.97099609 38.89573242 7.13427734 39.46948242 C4.97021484 40.78198242 4.97021484 40.78198242 2.97021484 40.78198242 C2.97021484 41.44198242 2.97021484 42.10198242 2.97021484 42.78198242 C-1.44040652 43.80770832 -3.95609092 43.81882954 -8.02978516 41.78198242 C-8.02978516 41.12198242 -8.02978516 40.46198242 -8.02978516 39.78198242 C-8.87541016 39.53448242 -9.72103516 39.28698242 -10.59228516 39.03198242 C-14.34534726 37.66723256 -17.59732847 35.78358386 -21.02978516 33.78198242 C-22.48502915 32.95690735 -23.94077669 32.13271992 -25.39697266 31.30932617 C-26.89988936 30.44658914 -28.40249036 29.58330193 -29.90478516 28.71948242 C-30.67564453 28.28571289 -31.44650391 27.85194336 -32.24072266 27.4050293 C-32.97291016 26.98157227 -33.70509766 26.55811523 -34.45947266 26.12182617 C-35.12188965 25.74405029 -35.78430664 25.36627441 -36.46679688 24.97705078 C-38.02978516 23.78198242 -38.02978516 23.78198242 -39.02978516 20.78198242 C-38.26424316 20.35900879 -37.49870117 19.93603516 -36.70996094 19.50024414 C-33.82033144 17.90255164 -30.93161157 16.30323704 -28.04345703 14.70288086 C-26.80259668 14.01572396 -25.56139587 13.32918142 -24.31982422 12.64331055 C-22.5164746 11.6469526 -20.71439764 10.64832702 -18.91259766 9.64916992 C-18.32295227 9.3236615 -17.73330688 8.99815308 -17.12579346 8.66278076 C-12.67195431 6.18735874 -8.36441301 3.52477161 -4.11132812 0.7199707 C-2.02978516 -0.21801758 -2.02978516 -0.21801758 0 0 Z " fill="#D02729" transform="translate(61.02978515625,0.218017578125)"/>
<path d="M0 0 C2.475 0.99 2.475 0.99 5 2 C5.33 2.99 5.66 3.98 6 5 C7.98567708 5.1953125 9.97135417 5.390625 11.95703125 5.5859375 C14 6 14 6 17 8 C17 8.66 17 9.32 17 10 C17.66386719 10.07089844 18.32773437 10.14179687 19.01171875 10.21484375 C23.0879492 11.28585332 26.25966823 13.34240513 29.8125 15.5625 C30.85180664 16.19961914 30.85180664 16.19961914 31.91210938 16.84960938 C33.61216951 17.89309456 35.30665476 18.94565296 37 20 C36.80786133 21.79736328 36.80786133 21.79736328 36 24 C33.8737793 25.64404297 33.8737793 25.64404297 31.07421875 27.2421875 C30.04876953 27.83386719 29.02332031 28.42554687 27.96679688 29.03515625 C26.88462891 29.64230469 25.80246094 30.24945313 24.6875 30.875 C23.64787109 31.47441406 22.60824219 32.07382813 21.53710938 32.69140625 C14.45832781 36.73767817 7.32141422 40.33929289 0 44 C0 29.48 0 14.96 0 0 Z " fill="#E36120" transform="translate(39,66)"/>
<path d="M0 0 C0.64412842 0.37181396 1.28825684 0.74362793 1.9519043 1.12670898 C2.589104 1.48966064 3.22630371 1.8526123 3.8828125 2.2265625 C4.67260498 2.68732178 5.46239746 3.14808105 6.27612305 3.62280273 C8.81299805 5.08717773 11.34987305 6.55155273 13.96362305 8.06030273 C13.96362305 15.98030273 13.96362305 23.90030273 13.96362305 32.06030273 C12.97362305 32.55530273 12.97362305 32.55530273 11.96362305 33.06030273 C11.63362305 32.07030273 11.30362305 31.08030273 10.96362305 30.06030273 C9.41132288 28.84004853 9.41132288 28.84004853 7.47143555 27.83374023 C6.76631836 27.44186523 6.06120117 27.04999023 5.3347168 26.64624023 C4.22290039 26.04682617 4.22290039 26.04682617 3.08862305 25.43530273 C2.35514648 25.02795898 1.62166992 24.62061523 0.8659668 24.20092773 C-2.0964774 22.57131362 -4.81883283 21.13281744 -8.03637695 20.06030273 C-8.03637695 19.40030273 -8.03637695 18.74030273 -8.03637695 18.06030273 C-8.7840332 17.89014648 -9.53168945 17.71999023 -10.30200195 17.54467773 C-11.2868457 17.30233398 -12.27168945 17.05999023 -13.28637695 16.81030273 C-14.2609082 16.57827148 -15.23543945 16.34624023 -16.23950195 16.10717773 C-19.3723457 14.93454907 -20.81740437 13.51491842 -23.03637695 11.06030273 C-23.69637695 10.73030273 -24.35637695 10.40030273 -25.03637695 10.06030273 C-25.03637695 9.40030273 -25.03637695 8.74030273 -25.03637695 8.06030273 C-22.15394272 6.34909508 -19.2536383 4.67078402 -16.34887695 2.99780273 C-15.53225586 2.5124707 -14.71563477 2.02713867 -13.87426758 1.52709961 C-13.07827148 1.07270508 -12.28227539 0.61831055 -11.4621582 0.15014648 C-10.73424072 -0.27403564 -10.00632324 -0.69821777 -9.25634766 -1.13525391 C-5.77137968 -2.3980901 -3.28017818 -1.51365613 0 0 Z " fill="#5A2B7C" transform="translate(64.036376953125,55.939697265625)"/>
<path d="M0 0 C0.88300781 0.50789063 1.76601563 1.01578125 2.67578125 1.5390625 C9.27211229 5.3252808 15.8893463 9.05824815 22.578125 12.6796875 C25.74637206 14.40689316 28.87564258 16.19481571 32 18 C32 18.66 32 19.32 32 20 C32.78375 20.144375 33.5675 20.28875 34.375 20.4375 C37 21 37 21 39 22 C39 22.66 39 23.32 39 24 C36.47690105 25.99888962 33.64077561 27.54759522 30.875 29.1875 C30.11445312 29.66380859 29.35390625 30.14011719 28.5703125 30.63085938 C25.21379983 32.63029925 22.88371936 33.9763591 18.93359375 34.08203125 C15.04448687 32.64756706 11.68617952 30.70502143 8.1875 28.5 C7.1675293 27.87544922 7.1675293 27.87544922 6.12695312 27.23828125 C1.20659497 24.20659497 1.20659497 24.20659497 0 23 C-0.08713831 21.29227642 -0.10700007 19.58101351 -0.09765625 17.87109375 C-0.09443359 16.83662109 -0.09121094 15.80214844 -0.08789062 14.73632812 C-0.07951172 13.64771484 -0.07113281 12.55910156 -0.0625 11.4375 C-0.05798828 10.34501953 -0.05347656 9.25253906 -0.04882812 8.12695312 C-0.03699826 5.41791505 -0.02051543 2.70898401 0 0 Z " fill="#1B458A" transform="translate(21,22)"/>
<path d="M0 0 C0.97404785 0.55772095 0.97404785 0.55772095 1.96777344 1.12670898 C2.67675781 1.52954102 3.38574219 1.93237305 4.11621094 2.34741211 C5.210625 2.97873047 5.210625 2.97873047 6.32714844 3.62280273 C7.07222656 4.04754883 7.81730469 4.47229492 8.58496094 4.90991211 C10.41813805 5.95576315 12.24797521 7.00746465 14.07714844 8.06030273 C14.07714844 8.72030273 14.07714844 9.38030273 14.07714844 10.06030273 C12.28833108 11.06539075 10.49600148 12.06423009 8.70214844 13.06030273 C7.70441406 13.61717773 6.70667969 14.17405273 5.67871094 14.74780273 C3.07714844 16.06030273 3.07714844 16.06030273 1.07714844 16.06030273 C1.07714844 16.72030273 1.07714844 17.38030273 1.07714844 18.06030273 C-0.90285156 19.05030273 -0.90285156 19.05030273 -2.92285156 20.06030273 C-2.92285156 21.05030273 -2.92285156 22.04030273 -2.92285156 23.06030273 C-2.05660156 23.30780273 -1.19035156 23.55530273 -0.29785156 23.81030273 C3.32380041 25.15165532 6.04884091 26.66582701 9.07714844 29.06030273 C9.74511719 31.19311523 9.74511719 31.19311523 10.07714844 33.06030273 C8.62265443 34.06587884 7.163424 35.06460708 5.70214844 36.06030273 C4.89003906 36.61717773 4.07792969 37.17405273 3.24121094 37.74780273 C1.07714844 39.06030273 1.07714844 39.06030273 -0.92285156 39.06030273 C-0.92285156 39.72030273 -0.92285156 40.38030273 -0.92285156 41.06030273 C-2.24285156 41.06030273 -3.56285156 41.06030273 -4.92285156 41.06030273 C-4.92285156 34.13030273 -4.92285156 27.20030273 -4.92285156 20.06030273 C-6.90285156 19.40030273 -8.88285156 18.74030273 -10.92285156 18.06030273 C-13.0758562 16.90260438 -15.20169008 15.69299963 -17.29785156 14.43530273 C-18.35746094 13.80366211 -19.41707031 13.17202148 -20.50878906 12.52124023 C-21.70375 11.79807617 -21.70375 11.79807617 -22.92285156 11.06030273 C-22.54970285 8.62857952 -22.30848929 7.38940589 -20.40405273 5.76416016 C-19.76443604 5.40169189 -19.12481934 5.03922363 -18.46582031 4.66577148 C-17.76521484 4.2680957 -17.06460938 3.87041992 -16.34277344 3.46069336 C-15.60607422 3.06043945 -14.869375 2.66018555 -14.11035156 2.24780273 C-13.38525391 1.82821289 -12.66015625 1.40862305 -11.91308594 0.97631836 C-7.14767195 -1.67016498 -5.06318148 -2.47437602 0 0 Z " fill="#F09622" transform="translate(64.9228515625,1.939697265625)"/>
<path d="M0 0 C2.06337988 18.92937381 2.06337988 18.92937381 -1.1953125 23.77880859 C-4.63905185 26.84837241 -8.71820504 28.36860098 -13 30 C-14.66789693 30.9979467 -16.33490114 31.99739163 -18 33 C-18.66 33 -19.32 33 -20 33 C-20.26275596 29.4597564 -20.42160329 25.92201867 -20.5625 22.375 C-20.63791016 21.37597656 -20.71332031 20.37695312 -20.79101562 19.34765625 C-20.8809838 16.32872423 -20.82655645 13.90954564 -20 11 C-17.35492195 8.24337211 -14.41118289 6.66188623 -11 5 C-10.08347656 4.44570313 -9.16695312 3.89140625 -8.22265625 3.3203125 C-7.50980469 2.92585938 -6.79695312 2.53140625 -6.0625 2.125 C-5.33160156 1.71507812 -4.60070312 1.30515625 -3.84765625 0.8828125 C-2 0 -2 0 0 0 Z " fill="#3EA46C" transform="translate(20,54)"/>
<path d="M0 0 C0 14.52 0 29.04 0 44 C-14 37 -14 37 -20 33 C-17.03009153 31.02006102 -14.01080187 29.18985384 -10.9375 27.375 C-9.34228516 26.42753906 -9.34228516 26.42753906 -7.71484375 25.4609375 C-5 24 -5 24 -3 24 C-3.33 22.02 -3.66 20.04 -4 18 C-4.99 18 -5.98 18 -7 18 C-7.33 17.34 -7.66 16.68 -8 16 C-10.11015954 14.87293294 -10.11015954 14.87293294 -12.5625 13.875 C-13.80193359 13.34519531 -13.80193359 13.34519531 -15.06640625 12.8046875 C-15.70449219 12.53914063 -16.34257812 12.27359375 -17 12 C-15.64013776 8.66972513 -14.53934748 7.42793379 -11.25 6 C-8.52420578 4.74881577 -6.03507253 3.45026779 -3.5625 1.75 C-1 0 -1 0 0 0 Z " fill="#F49321" transform="translate(39,66)"/>
<path d="M0 0 C2.06077439 18.90547113 2.06077439 18.90547113 -1.1953125 23.79492188 C-4.62447564 26.89435779 -8.66493447 28.47535796 -13 30 C-14.65 30.66 -16.3 31.32 -18 32 C-18 24.41 -18 16.82 -18 9 C-15.40125 7.515 -12.8025 6.03 -10.125 4.5 C-9.30789551 4.03013672 -8.49079102 3.56027344 -7.64892578 3.07617188 C-7.0042334 2.71072266 -6.35954102 2.34527344 -5.6953125 1.96875 C-5.03547363 1.59169922 -4.37563477 1.21464844 -3.69580078 0.82617188 C-2 0 -2 0 0 0 Z " fill="#41A36C" transform="translate(98,24)"/>
<path d="M0 0 C2.475 0.99 2.475 0.99 5 2 C5 2.66 5 3.32 5 4 C5.66386719 4.07089844 6.32773437 4.14179687 7.01171875 4.21484375 C11.0879492 5.28585332 14.25966823 7.34240513 17.8125 9.5625 C18.50537109 9.98724609 19.19824219 10.41199219 19.91210938 10.84960938 C21.61216951 11.89309456 23.30665476 12.94565296 25 14 C24.62469732 16.4072669 24.39062518 17.66446544 22.50952148 19.28027344 C21.88634033 19.63637695 21.26315918 19.99248047 20.62109375 20.359375 C19.94755859 20.75253906 19.27402344 21.14570312 18.58007812 21.55078125 C17.87302734 21.94652344 17.16597656 22.34226562 16.4375 22.75 C15.72658203 23.16121094 15.01566406 23.57242188 14.28320312 23.99609375 C12.52865912 25.00878358 10.76514839 26.00590921 9 27 C6.89790143 23.84685215 6.7565239 23.13896919 6.8046875 19.55078125 C6.81435547 18.27944336 6.81435547 18.27944336 6.82421875 16.98242188 C6.84097656 16.10134766 6.85773437 15.22027344 6.875 14.3125 C6.88402344 13.41982422 6.89304687 12.52714844 6.90234375 11.60742188 C6.92590252 9.40467686 6.95879671 7.20247412 7 5 C6.01 5 5.02 5 4 5 C4 4.34 4 3.68 4 3 C2.68 3 1.36 3 0 3 C0 2.01 0 1.02 0 0 Z " fill="#D50C7F" transform="translate(51,72)"/>
<path d="M0 0 C-0.33 6.93 -0.66 13.86 -1 21 C-1.99 21 -2.98 21 -4 21 C-4 20.34 -4 19.68 -4 19 C-4.74765625 18.82984375 -5.4953125 18.6596875 -6.265625 18.484375 C-7.25046875 18.24203125 -8.2353125 17.9996875 -9.25 17.75 C-10.22453125 17.51796875 -11.1990625 17.2859375 -12.203125 17.046875 C-15.33596874 15.87424634 -16.78102742 14.45461569 -19 12 C-19.66 11.67 -20.32 11.34 -21 11 C-21 10.34 -21 9.68 -21 9 C-18.07178145 7.29599331 -15.131112 5.61475261 -12.1875 3.9375 C-11.35412109 3.45216797 -10.52074219 2.96683594 -9.66210938 2.46679688 C-8.45844727 1.78520508 -8.45844727 1.78520508 -7.23046875 1.08984375 C-6.49207764 0.66566162 -5.75368652 0.24147949 -4.99291992 -0.19555664 C-3 -1 -3 -1 0 0 Z " fill="#06A2DB" transform="translate(60,55)"/>
<path d="M0 0 C0 6.93 0 13.86 0 21 C-3 22 -3 22 -4.90112305 21.19555664 C-5.59761963 20.77137451 -6.29411621 20.34719238 -7.01171875 19.91015625 C-7.76904297 19.45576172 -8.52636719 19.00136719 -9.30664062 18.53320312 C-10.09232422 18.04787109 -10.87800781 17.56253906 -11.6875 17.0625 C-12.88342773 16.34030273 -12.88342773 16.34030273 -14.10351562 15.60351562 C-16.07472743 14.41134561 -18.03968412 13.2099739 -20 12 C-16.14164845 8.73070976 -12.14035887 6.20932966 -7.75 3.75 C-6.79480469 3.20472656 -6.79480469 3.20472656 -5.8203125 2.6484375 C-1.14074248 0 -1.14074248 0 0 0 Z " fill="#9BC539" transform="translate(20,76)"/>
<path d="M0 0 C0 6.93 0 13.86 0 21 C-4.76611475 19.41129508 -8.15348434 17.90790939 -12.375 15.375 C-13.43460938 14.74335938 -14.49421875 14.11171875 -15.5859375 13.4609375 C-16.78089844 12.73777344 -16.78089844 12.73777344 -18 12 C-17.9296875 10.265625 -17.9296875 10.265625 -17 8 C-14.71448245 6.39838412 -12.56434038 5.06461458 -10.125 3.75 C-9.48691406 3.38648438 -8.84882812 3.02296875 -8.19140625 2.6484375 C-5.2746676 1.02870372 -3.38542353 0 0 0 Z " fill="#E76125" transform="translate(60,1)"/>
<path d="M0 0 C4.65770163 1.55256721 8.18920476 3.03454347 12.375 5.4375 C13.43460938 6.03433594 14.49421875 6.63117187 15.5859375 7.24609375 C16.38257812 7.82488281 17.17921875 8.40367188 18 9 C18 9.99 18 10.98 18 12 C15.37785672 13.50519387 12.75255792 15.00431319 10.125 16.5 C9.37863281 16.92925781 8.63226563 17.35851562 7.86328125 17.80078125 C7.14785156 18.20683594 6.43242188 18.61289062 5.6953125 19.03125 C5.03547363 19.40830078 4.37563477 19.78535156 3.69580078 20.17382812 C2 21 2 21 0 21 C0 14.07 0 7.14 0 0 Z " fill="#9CC33A" transform="translate(80,12)"/>
<path d="M0 0 C4.13347071 0.47239665 7.35761877 2.05174957 11 4 C11 4.66 11 5.32 11 6 C11.78375 6.144375 12.5675 6.28875 13.375 6.4375 C16 7 16 7 18 8 C18 8.66 18 9.32 18 10 C16.47119141 11.14501953 16.47119141 11.14501953 14.3515625 12.3828125 C13.59359375 12.82753906 12.835625 13.27226563 12.0546875 13.73046875 C11.25289062 14.19066406 10.45109375 14.65085937 9.625 15.125 C8.8309375 15.59292969 8.036875 16.06085937 7.21875 16.54296875 C1.2722531 20 1.2722531 20 -1 20 C-1.02888514 16.85418577 -1.04675923 13.70840531 -1.0625 10.5625 C-1.07087891 9.66466797 -1.07925781 8.76683594 -1.08789062 7.84179688 C-1.09111328 6.98779297 -1.09433594 6.13378906 -1.09765625 5.25390625 C-1.10551147 4.06776733 -1.10551147 4.06776733 -1.11352539 2.85766602 C-1 1 -1 1 0 0 Z " fill="#09A1D8" transform="translate(42,36)"/>
<path d="M0 0 C4.79188405 0.95837681 7.81974728 2.48523821 11.8125 5.0625 C12.40998047 5.43955078 13.00746094 5.81660156 13.62304688 6.20507812 C15.08636577 7.12989566 16.54379523 8.06402065 18 9 C17.7421875 10.89453125 17.7421875 10.89453125 17 13 C15.2578125 14.01171875 15.2578125 14.01171875 13.125 14.6875 C12.42632812 14.91824219 11.72765625 15.14898437 11.0078125 15.38671875 C10.01394531 15.69029297 10.01394531 15.69029297 9 16 C8.01 16.33 7.02 16.66 6 17 C6 17.66 6 18.32 6 19 C4.02 19.33 2.04 19.66 0 20 C0 13.4 0 6.8 0 0 Z " fill="#214289" transform="translate(59,55)"/>
<path d="M0 0 C0 6.6 0 13.2 0 20 C-4.02197868 18.39120853 -7.5119535 16.70313008 -11.25 14.5625 C-12.83554687 13.66724609 -12.83554687 13.66724609 -14.453125 12.75390625 C-17 11 -17 11 -18 8 C-15.75583701 6.65590238 -13.50557204 5.32470104 -11.25 4 C-10.29867188 3.42765625 -10.29867188 3.42765625 -9.328125 2.84375 C-5.86028524 0.82084348 -4.10651746 0 0 0 Z " fill="#D90880" transform="translate(40,13)"/>
<path d="M0 0 C3.3103125 1.6396875 3.3103125 1.6396875 6.6875 3.3125 C7.37287842 3.65063721 8.05825684 3.98877441 8.7644043 4.3371582 C15.92699715 7.90236708 15.92699715 7.90236708 19 10 C19 10.66 19 11.32 19 12 C17.87980469 12.55429688 16.75960937 13.10859375 15.60546875 13.6796875 C14.13275962 14.41135191 12.66010628 15.14312861 11.1875 15.875 C10.44951172 16.23980469 9.71152344 16.60460937 8.95117188 16.98046875 C8.23896484 17.33496094 7.52675781 17.68945312 6.79296875 18.0546875 C6.1383667 18.37937012 5.48376465 18.70405273 4.80932617 19.03857422 C2.75347202 20.09255672 2.75347202 20.09255672 0 22 C0 14.74 0 7.48 0 0 Z " fill="#9DC23E" transform="translate(20,54)"/>
<path d="M0 0 C2.18625 1.2375 4.3725 2.475 6.625 3.75 C7.30127441 4.13124023 7.97754883 4.51248047 8.67431641 4.90527344 C12.56576693 7.11892535 16.30296969 9.47464391 20 12 C17.6380684 14.3619316 15.2618867 15.09399463 12.1640625 16.21484375 C7.41556104 17.93767551 3.65506659 19.34493341 0 23 C0 15.41 0 7.82 0 0 Z " fill="#572C7B" transform="translate(21,22)"/>
<path d="M0 0 C0 6.93 0 13.86 0 21 C-2.31 20.34 -4.62 19.68 -7 19 C-7 18.34 -7 17.68 -7 17 C-7.928125 16.71125 -8.85625 16.4225 -9.8125 16.125 C-13 15 -13 15 -16 13 C-16.6875 10.875 -16.6875 10.875 -17 9 C-16.16855469 8.51789062 -15.33710937 8.03578125 -14.48046875 7.5390625 C-13.39378906 6.90742188 -12.30710937 6.27578125 -11.1875 5.625 C-10.10855469 4.99851562 -9.02960937 4.37203125 -7.91796875 3.7265625 C-1.6199095 0 -1.6199095 0 0 0 Z " fill="#E94326" transform="translate(60,23)"/>
<path d="M0 0 C0.33 0 0.66 0 1 0 C1 7.26 1 14.52 1 22 C-5.75 19.75 -5.75 19.75 -8.6484375 18.0546875 C-9.26074219 17.70019531 -9.87304688 17.34570312 -10.50390625 16.98046875 C-11.12136719 16.61566406 -11.73882812 16.25085938 -12.375 15.875 C-13.01566406 15.50246094 -13.65632813 15.12992188 -14.31640625 14.74609375 C-15.88048477 13.83565998 -17.44065534 12.91851809 -19 12 C-19 11.34 -19 10.68 -19 10 C-18.39671875 9.80664062 -17.7934375 9.61328125 -17.171875 9.4140625 C-16.37265625 9.15367188 -15.5734375 8.89328125 -14.75 8.625 C-13.96109375 8.36976562 -13.1721875 8.11453125 -12.359375 7.8515625 C-9.99751144 7.05887299 -9.99751144 7.05887299 -7.890625 5.8984375 C-6 5 -6 5 -3 5 C-2.690625 4.360625 -2.38125 3.72125 -2.0625 3.0625 C-1 1 -1 1 0 0 Z " fill="#98C340" transform="translate(79,34)"/>
<path d="M0 0 C0.33 7.26 0.66 14.52 1 22 C-1.206875 20.741875 -3.41375 19.48375 -5.6875 18.1875 C-6.37287842 17.79715576 -7.05825684 17.40681152 -7.7644043 17.00463867 C-11.20123902 15.04293863 -14.61553071 13.05138961 -18 11 C-15.21629142 7.73171993 -11.56811335 5.87542089 -7.875 3.8125 C-7.22917969 3.44447266 -6.58335938 3.07644531 -5.91796875 2.69726562 C-1.14395872 0 -1.14395872 0 0 0 Z " fill="#D0272A" transform="translate(58,77)"/>
<path d="M0 0 C0 6.6 0 13.2 0 20 C-4.10378782 18.35848487 -7.53701601 16.61539709 -11.3125 14.375 C-12.38113281 13.74335937 -13.44976562 13.11171875 -14.55078125 12.4609375 C-15.35902344 11.97882812 -16.16726562 11.49671875 -17 11 C-15.60970863 6.82912589 -12.72156282 5.81791302 -9.0625 3.8125 C-8.41603516 3.44447266 -7.76957031 3.07644531 -7.10351562 2.69726562 C-2.28446776 0 -2.28446776 0 0 0 Z " fill="#0D9B47" transform="translate(98,24)"/>
<path d="M0 0 C4.24725973 2.12362986 8.29506044 4.28486893 12.375 6.6875 C13.43460938 7.31011719 14.49421875 7.93273437 15.5859375 8.57421875 C16.38257812 9.04472656 17.17921875 9.51523438 18 10 C15.53004782 12.77765666 12.81999181 14.36586602 9.5625 16.125 C8.61503906 16.64320312 7.66757813 17.16140625 6.69140625 17.6953125 C4 19 4 19 0 20 C0 13.4 0 6.8 0 0 Z " fill="#0E9A48" transform="translate(1,66)"/>
<path d="M0 0 C0 7.26 0 14.52 0 22 C-0.99 22.33 -1.98 22.66 -3 23 C-3.33 21.35 -3.66 19.7 -4 18 C-4.99 18 -5.98 18 -7 18 C-7.33 17.34 -7.66 16.68 -8 16 C-10.11015954 14.87293294 -10.11015954 14.87293294 -12.5625 13.875 C-13.80193359 13.34519531 -13.80193359 13.34519531 -15.06640625 12.8046875 C-15.70449219 12.53914063 -16.34257812 12.27359375 -17 12 C-15.64013776 8.66972513 -14.53934748 7.42793379 -11.25 6 C-8.52420578 4.74881577 -6.03507253 3.45026779 -3.5625 1.75 C-1 0 -1 0 0 0 Z " fill="#FAB816" transform="translate(39,66)"/>
<path d="M0 0 C2.475 0.99 2.475 0.99 5 2 C5 2.66 5 3.32 5 4 C7.97 4.495 7.97 4.495 11 5 C11 5.99 11 6.98 11 8 C12.32 8 13.64 8 15 8 C15 8.66 15 9.32 15 10 C15.66 10.33 16.32 10.66 17 11 C14.35559624 12.50256989 11.70958148 14.0021612 9.0625 15.5 C7.93038086 16.14388672 7.93038086 16.14388672 6.77539062 16.80078125 C5.69741211 17.40986328 5.69741211 17.40986328 4.59765625 18.03125 C3.93258057 18.40830078 3.26750488 18.78535156 2.58227539 19.17382812 C1 20 1 20 0 20 C0 13.4 0 6.8 0 0 Z " fill="#ED422D" transform="translate(40,67)"/>
<path d="M0 0 C4.60836476 1.31667565 8.22762713 3.01719354 12 6 C12.66796875 8.1328125 12.66796875 8.1328125 13 10 C11.54550599 11.0055761 10.08627557 12.00430435 8.625 13 C7.40683594 13.8353125 7.40683594 13.8353125 6.1640625 14.6875 C4 16 4 16 2 16 C2 16.66 2 17.32 2 18 C1.01 18 0.02 18 -1 18 C-1.02684312 15.18743719 -1.04676188 12.37512759 -1.0625 9.5625 C-1.07087891 8.76005859 -1.07925781 7.95761719 -1.08789062 7.13085938 C-1.0965143 5.08704779 -1.0522815 3.04316098 -1 1 C-0.67 0.67 -0.34 0.34 0 0 Z " fill="#FAB817" transform="translate(62,25)"/>
<path d="M0 0 C0.99 0 1.98 0 3 0 C3 0.66 3 1.32 3 2 C3.99 2.33 4.98 2.66 6 3 C5.67 3.66 5.34 4.32 5 5 C7.31 5.33 9.62 5.66 12 6 C12 7.65 12 9.3 12 11 C11.01 11.33 10.02 11.66 9 12 C9 12.66 9 13.32 9 14 C7.68 14 6.36 14 5 14 C5 14.66 5 15.32 5 16 C3.68 16 2.36 16 1 16 C-0.50156874 12.99686252 -0.09281204 10.20932478 -0.0625 6.875 C-0.05347656 5.59367187 -0.04445312 4.31234375 -0.03515625 2.9921875 C-0.02355469 2.00476563 -0.01195312 1.01734375 0 0 Z " fill="#E2027F" transform="translate(59,79)"/>
<path d="M0 0 C-0.66 0.66 -1.32 1.32 -2 2 C-3.32 2 -4.64 2 -6 2 C-6.33 2.99 -6.66 3.98 -7 5 C-9.0625 5.6875 -9.0625 5.6875 -11 6 C-10.67 6.33 -10.34 6.66 -10 7 C-8.08575543 6.8981629 -8.08575543 6.8981629 -5.9375 6.5625 C-3.9884375 6.2840625 -3.9884375 6.2840625 -2 6 C-2 9.88709831 -2.38556298 10.77112596 -4 14 C-3.67 14.66 -3.34 15.32 -3 16 C-8.31027254 14.53967505 -12.46330032 12.01679014 -17 9 C-16.5625 6.75 -16.5625 6.75 -15 4 C-12.11938141 2.34459726 -9.09977272 1.17976424 -6 0 C-3.50907189 -1.24546405 -2.58919267 -0.7767578 0 0 Z " fill="#1F407F" transform="translate(39,37)"/>
<path d="M0 0 C0.33 0 0.66 0 1 0 C1 6.27 1 12.54 1 19 C0.01 19.33 -0.98 19.66 -2 20 C-6.875 15.375 -6.875 15.375 -8 12 C-7.34 12 -6.68 12 -6 12 C-6 11.01 -6 10.02 -6 9 C-6.66 8.34 -7.32 7.68 -8 7 C-7.01 6.67 -6.02 6.34 -5 6 C-4.67 5.01 -4.34 4.02 -4 3 C-1.9375 2.3125 -1.9375 2.3125 0 2 C0 1.34 0 0.68 0 0 Z " fill="#A1C438" transform="translate(19,78)"/>
<path d="M0 0 C0.33 0 0.66 0 1 0 C1 4.62 1 9.24 1 14 C-6.81636537 12.08277831 -6.81636537 12.08277831 -9 9 C-9 8.34 -9 7.68 -9 7 C-7.02 6.01 -5.04 5.02 -3 4 C-2.67 4.33 -2.34 4.66 -2 5 C-1.34 3.35 -0.68 1.7 0 0 Z " fill="#06A1DA" transform="translate(56,59)"/>
<path d="M0 0 C2 1 2 1 2 1 Z M0 2 C-0.99 3.485 -0.99 3.485 -2 5 C-0.68 5 0.64 5 2 5 C3.32 5 4.64 5 6 5 C5.6875 7.375 5.6875 7.375 5 10 C4.01 10.66 3.02 11.32 2 12 C2 11.34 2 10.68 2 10 C0.68 10 -0.64 10 -2 10 C-2 9.34 -2 8.68 -2 8 C-2.99 8 -3.98 8 -5 8 C-6.6875 6.625 -6.6875 6.625 -8 5 C-8 4.34 -8 3.68 -8 3 C-2.25 0.875 -2.25 0.875 0 2 Z " fill="#EF402B" transform="translate(53,29)"/>
<path d="M0 0 C-0.33 6.93 -0.66 13.86 -1 21 C-1.99 21 -2.98 21 -4 21 C-4 20.34 -4 19.68 -4 19 C-4.99 18.67 -5.98 18.34 -7 18 C-6.34 17.67 -5.68 17.34 -5 17 C-4.34 17.33 -3.68 17.66 -3 18 C-3 12.72 -3 7.44 -3 2 C-4.98 2.99 -4.98 2.99 -7 4 C-7.99 3.67 -8.98 3.34 -10 3 C-3.375 -1.125 -3.375 -1.125 0 0 Z " fill="#268ABF" transform="translate(60,55)"/>
<path d="M0 0 C0.99 0.33 1.98 0.66 3 1 C2.34 1.66 1.68 2.32 1 3 C0.63168919 4.93257855 0.63168919 4.93257855 0.5859375 7.1328125 C0.54726563 7.93847656 0.50859375 8.74414062 0.46875 9.57421875 C0.42234375 10.83685547 0.42234375 10.83685547 0.375 12.125 C0.33632813 12.97449219 0.29765625 13.82398438 0.2578125 14.69921875 C0.16343506 16.79911684 0.08062414 18.89952891 0 21 C-0.33 21 -0.66 21 -1 21 C-1.33 16.05 -1.66 11.1 -2 6 C-3.65 6 -5.3 6 -7 6 C-7 6.66 -7 7.32 -7 8 C-6.34 8.33 -5.68 8.66 -5 9 C-9.41225737 10.47075246 -12.48281619 11.36884358 -17 10 C-15 8 -15 8 -11.9375 7.5 C-10.4834375 7.2525 -10.4834375 7.2525 -9 7 C-8.67 6.34 -8.34 5.68 -8 5 C-7.21625 4.690625 -6.4325 4.38125 -5.625 4.0625 C-3.04017895 3.01626291 -1.7953831 2.07886465 0 0 Z " fill="#244188" transform="translate(41,34)"/>
<path d="M0 0 C3.40312738 1.05875074 6.01353231 2.00902154 9 4 C9 4.99 9 5.98 9 7 C7.54462432 7.83848804 6.08559627 8.67063934 4.625 9.5 C3.81289062 9.9640625 3.00078125 10.428125 2.1640625 10.90625 C0 12 0 12 -2 12 C-2 11.34 -2 10.68 -2 10 C-1.01 10 -0.02 10 1 10 C0.67 8.35 0.34 6.7 0 5 C0.66 5 1.32 5 2 5 C1.34 3.35 0.68 1.7 0 0 Z " fill="#9EC147" transform="translate(89,17)"/>
<path d="M0 0 C0 0.99 0 1.98 0 3 C-3 5 -3 5 -7 5 C-6.649375 5.61875 -6.29875 6.2375 -5.9375 6.875 C-5.628125 7.57625 -5.31875 8.2775 -5 9 C-5.33 9.66 -5.66 10.32 -6 11 C-5.34 11.33 -4.68 11.66 -4 12 C-7.01031744 12.93423645 -7.86650268 13.04449911 -11 12 C-11 11.34 -11 10.68 -11 10 C-12.32 9.67 -13.64 9.34 -15 9 C-13.25156882 7.87256334 -11.5011906 6.7481458 -9.75 5.625 C-8.77546875 4.99851562 -7.8009375 4.37203125 -6.796875 3.7265625 C-4.56478385 2.34865148 -2.36912578 1.11687358 0 0 Z " fill="#EF9719" transform="translate(36,89)"/>
<path d="M0 0 C2.97 0.495 2.97 0.495 6 1 C6 1.66 6 2.32 6 3 C7.98 3 9.96 3 12 3 C12 2.01 12 1.02 12 0 C13.65 0 15.3 0 17 0 C17 0.66 17 1.32 17 2 C16.34 2 15.68 2 15 2 C15.66 4.64 16.32 7.28 17 10 C12.97683781 8.51463956 9.38707358 6.60123107 5.6875 4.4375 C4.61886719 3.81746094 3.55023437 3.19742188 2.44921875 2.55859375 C1.64097656 2.04425781 0.83273438 1.52992187 0 1 C0 0.67 0 0.34 0 0 Z " fill="#EC9426" transform="translate(19,98)"/>
<path d="M0 0 C2.475 0.99 2.475 0.99 5 2 C5 2.66 5 3.32 5 4 C6.32 4.33 7.64 4.66 9 5 C9 10.94 9 16.88 9 23 C10.32 23 11.64 23 13 23 C13 22.34 13 21.68 13 21 C14.32 21.33 15.64 21.66 17 22 C12.545 24.475 12.545 24.475 8 27 C7.05862745 24.17588235 6.88274618 22.47081968 6.90234375 19.55078125 C6.90556641 18.70322266 6.90878906 17.85566406 6.91210938 16.98242188 C6.92048828 16.10134766 6.92886719 15.22027344 6.9375 14.3125 C6.94201172 13.41982422 6.94652344 12.52714844 6.95117188 11.60742188 C6.96295017 9.40488013 6.97939836 7.20247401 7 5 C6.01 5 5.02 5 4 5 C4 4.34 4 3.68 4 3 C2.68 3 1.36 3 0 3 C0 2.01 0 1.02 0 0 Z " fill="#CE3363" transform="translate(51,72)"/>
<path d="M0 0 C2.25256041 1.0991772 4.50198174 2.20410211 6.75 3.3125 C7.38421875 3.62123047 8.0184375 3.92996094 8.671875 4.24804688 C12.03147912 5.910351 15.09858921 7.61879165 18 10 C17.67 10.66 17.34 11.32 17 12 C16.01 11.34 15.02 10.68 14 10 C13.67 10.99 13.34 11.98 13 13 C12.01 13 11.02 13 10 13 C10.061875 12.21625 10.12375 11.4325 10.1875 10.625 C10.125625 9.75875 10.06375 8.8925 10 8 C6.71536341 5.81024227 3.79303725 5.00193437 0 4 C0 2.68 0 1.36 0 0 Z " fill="#ED5B31" transform="translate(40,88)"/>
<path d="M0 0 C4.6182583 0.54792895 7.98149647 2.58964488 11.8125 5.0625 C12.40998047 5.43955078 13.00746094 5.81660156 13.62304688 6.20507812 C15.08636577 7.12989566 16.54379523 8.06402065 18 9 C14.58524944 10.13825019 13.4490642 9.70549041 10 9 C7.66698014 8.96175377 5.33288492 8.95425716 3 9 C3.33 8.01 3.66 7.02 4 6 C4.99 5.67 5.98 5.34 7 5 C3.535 3.02 3.535 3.02 0 1 C0 0.67 0 0.34 0 0 Z M1 9 C1.99 9.495 1.99 9.495 3 10 C2.01 10.495 2.01 10.495 1 11 C1 10.34 1 9.68 1 9 Z " fill="#1D3F78" transform="translate(59,55)"/>
<path d="M0 0 C3.40312738 1.05875074 6.01353231 2.00902154 9 4 C9 4.66 9 5.32 9 6 C9.78375 6.144375 10.5675 6.28875 11.375 6.4375 C14 7 14 7 16 8 C16 8.66 16 9.32 16 10 C10.7265625 13.22265625 10.7265625 13.22265625 9 14 C8.34 13.67 7.68 13.34 7 13 C7.66 12.34 8.32 11.68 9 11 C9.6425235 8.93125966 9.6425235 8.93125966 10 7 C9.34 7 8.68 7 8 7 C8 6.34 8 5.68 8 5 C6.68 5 5.36 5 4 5 C4 4.34 4 3.68 4 3 C2.68 3 1.36 3 0 3 C0 2.01 0 1.02 0 0 Z " fill="#3491B8" transform="translate(44,36)"/>
<path d="M0 0 C0.33 0 0.66 0 1 0 C1 7.26 1 14.52 1 22 C0.01 22.33 -0.98 22.66 -2 23 C-1.67 18.71 -1.34 14.42 -1 10 C-1.99 10 -2.98 10 -4 10 C-4 9.34 -4 8.68 -4 8 C-3.34 8 -2.68 8 -2 8 C-1.855625 6.865625 -1.71125 5.73125 -1.5625 4.5625 C-1 1 -1 1 0 0 Z " fill="#FCB02C" transform="translate(38,66)"/>
<path d="M0 0 C0 7.26 0 14.52 0 22 C0.66 22 1.32 22 2 22 C1.67 22.66 1.34 23.32 1 24 C0.01 23.67 -0.98 23.34 -2 23 C-2 16.07 -2 9.14 -2 2 C-2.66 1.67 -3.32 1.34 -4 1 C-2 0 -2 0 0 0 Z " fill="#D62554" transform="translate(42,11)"/>
<path d="M0 0 C0.66 0.33 1.32 0.66 2 1 C-1.82104824 5.49535087 -7.19112438 8.29589386 -13 9 C-13 9.99 -13 10.98 -13 12 C-12.01 12.33 -11.02 12.66 -10 13 C-13 14 -13 14 -16 14 C-15.67 12.35 -15.34 10.7 -15 9 C-13.68 8.67 -12.36 8.34 -11 8 C-11 7.34 -11 6.68 -11 6 C-9.21385682 4.96953278 -7.42089982 3.95086764 -5.625 2.9375 C-4.62726563 2.36902344 -3.62953125 1.80054688 -2.6015625 1.21484375 C-1.74304688 0.81394531 -0.88453125 0.41304687 0 0 Z " fill="#EABC27" transform="translate(77,12)"/>
<path d="M0 0 C0 7.26 0 14.52 0 22 C-0.66 22 -1.32 22 -2 22 C-3.18225237 15.16920852 -2.74464946 8.87368733 -2 2 C-2.66 1.67 -3.32 1.34 -4 1 C-2 0 -2 0 0 0 Z " fill="#5BA961" transform="translate(20,54)"/>
<path d="M0 0 C0 5.28 0 10.56 0 16 C-0.99 15.67 -1.98 15.34 -3 15 C-3 10.38 -3 5.76 -3 1 C-1 0 -1 0 0 0 Z " fill="#E20181" transform="translate(39,15)"/>
<path d="M0 0 C0.99 0.33 1.98 0.66 3 1 C2.67 1.928125 2.34 2.85625 2 3.8125 C0.85032996 6.92029291 0.85032996 6.92029291 1 10 C-1.02045442 9.39816251 -3.02111039 8.72693904 -5 8 C-5.33 7.34 -5.66 6.68 -6 6 C-5.01 6 -4.02 6 -3 6 C-2.690625 5.195625 -2.38125 4.39125 -2.0625 3.5625 C-1 1 -1 1 0 0 Z " fill="#1F407F" transform="translate(35,43)"/>
<path d="M0 0 C-0.66 0.66 -1.32 1.32 -2 2 C-3.32 2 -4.64 2 -6 2 C-6.33 2.99 -6.66 3.98 -7 5 C-9.06640625 5.73046875 -9.06640625 5.73046875 -11.5625 6.1875 C-12.38878906 6.34605469 -13.21507812 6.50460938 -14.06640625 6.66796875 C-15.02353516 6.83232422 -15.02353516 6.83232422 -16 7 C-15 4 -15 4 -13.00390625 2.8671875 C-12.19824219 2.53976563 -11.39257812 2.21234375 -10.5625 1.875 C-9.75941406 1.54242188 -8.95632812 1.20984375 -8.12890625 0.8671875 C-7.07509766 0.43792969 -7.07509766 0.43792969 -6 0 C-3.50907189 -1.24546405 -2.58919267 -0.7767578 0 0 Z " fill="#3B3C86" transform="translate(39,37)"/>
<path d="M0 0 C0.66 0.33 1.32 0.66 2 1 C-0.28983782 4.59612113 -2.50295512 6.03144857 -6.375 7.75 C-7.77878906 8.39195313 -7.77878906 8.39195313 -9.2109375 9.046875 C-12.01076265 10.00367799 -14.06801633 10.19191166 -17 10 C-15.68 9.67 -14.36 9.34 -13 9 C-13 8.34 -13 7.68 -13 7 C-12.31292969 6.74605469 -11.62585938 6.49210937 -10.91796875 6.23046875 C-10.01691406 5.88628906 -9.11585937 5.54210938 -8.1875 5.1875 C-7.29417969 4.85105469 -6.40085937 4.51460937 -5.48046875 4.16796875 C-3.08075928 3.03802681 -1.71576647 1.98937707 0 0 Z " fill="#BFBF30" transform="translate(77,34)"/>
<path d="M0 0 C0.66 0 1.32 0 2 0 C1.67 0.99 1.34 1.98 1 3 C0.93029948 5.39490986 0.91551997 7.79167691 0.9375 10.1875 C0.94652344 11.45980469 0.95554688 12.73210938 0.96484375 14.04296875 C0.97644531 15.01878906 0.98804688 15.99460937 1 17 C1.99 17.33 2.98 17.66 4 18 C2.35 18.66 0.7 19.32 -1 20 C-1.02888514 16.85418577 -1.04675923 13.70840531 -1.0625 10.5625 C-1.07087891 9.66466797 -1.07925781 8.76683594 -1.08789062 7.84179688 C-1.09111328 6.98779297 -1.09433594 6.13378906 -1.09765625 5.25390625 C-1.10551147 4.06776733 -1.10551147 4.06776733 -1.11352539 2.85766602 C-1 1 -1 1 0 0 Z " fill="#2195CD" transform="translate(42,36)"/>
<path d="M0 0 C0.66 0.99 1.32 1.98 2 3 C-0.64 3.66 -3.28 4.32 -6 5 C-6 5.66 -6 6.32 -6 7 C-5.01 7.33 -4.02 7.66 -3 8 C-3 8.66 -3 9.32 -3 10 C-2.01 10 -1.02 10 0 10 C-0.33 10.66 -0.66 11.32 -1 12 C-3.9375 10.75 -3.9375 10.75 -7 9 C-7.33 7.68 -7.66 6.36 -8 5 C-4.04 2.525 -4.04 2.525 0 0 Z " fill="#DE4A3E" transform="translate(51,27)"/>
<path d="M0 0 C1.32 0.33 2.64 0.66 4 1 C4 1.66 4 2.32 4 3 C4.99 3 5.98 3 7 3 C7 3.66 7 4.32 7 5 C5.03125 6.5078125 5.03125 6.5078125 2.5 8.125 C1.6646875 8.66382813 0.829375 9.20265625 -0.03125 9.7578125 C-0.6809375 10.16773438 -1.330625 10.57765625 -2 11 C-2.66 10.67 -3.32 10.34 -4 10 C-2.02 8.68 -0.04 7.36 2 6 C1.49396008 3.83125748 1.00016187 2.00032373 0 0 Z " fill="#E7BF25" transform="translate(72,29)"/>
<path d="M0 0 C2.475 0.99 2.475 0.99 5 2 C4.67 2.66 4.34 3.32 4 4 C3.01 3.67 2.02 3.34 1 3 C1 8.61 1 14.22 1 20 C0.67 20 0.34 20 0 20 C0 13.4 0 6.8 0 0 Z " fill="#E14926" transform="translate(40,67)"/>
<path d="M0 0 C0.66 0.33 1.32 0.66 2 1 C2 1.66 2 2.32 2 3 C4.475 3.99 4.475 3.99 7 5 C7 5.66 7 6.32 7 7 C7.99 7.33 8.98 7.66 10 8 C8 9 8 9 6.125 8.8125 C3.39145048 7.7673193 1.98415623 6.11643331 0 4 C-0.66 3.67 -1.32 3.34 -2 3 C-2 2.34 -2 1.68 -2 1 C-1.34 0.67 -0.68 0.34 0 0 Z " fill="#707F90" transform="translate(41,63)"/>
<path d="M0 0 C3.63 1.98 7.26 3.96 11 6 C9.02 6.99 9.02 6.99 7 8 C6.01 7.67 5.02 7.34 4 7 C4 6.34 4 5.68 4 5 C3.34 4.67 2.68 4.34 2 4 C2 3.34 2 2.68 2 2 C1.34 2 0.68 2 0 2 C0 1.34 0 0.68 0 0 Z " fill="#C9148A" transform="translate(60,77)"/>
<path d="M0 0 C0.99 0.33 1.98 0.66 3 1 C2.34 1.66 1.68 2.32 1 3 C0.63168919 4.93257855 0.63168919 4.93257855 0.5859375 7.1328125 C0.54726563 7.93847656 0.50859375 8.74414062 0.46875 9.57421875 C0.4378125 10.41597656 0.406875 11.25773437 0.375 12.125 C0.33632813 12.97449219 0.29765625 13.82398438 0.2578125 14.69921875 C0.16343506 16.79911684 0.08062414 18.89952891 0 21 C-0.33 21 -0.66 21 -1 21 C-1.02888146 17.68751813 -1.04675799 14.37506833 -1.0625 11.0625 C-1.07087891 10.11697266 -1.07925781 9.17144531 -1.08789062 8.19726562 C-1.09111328 7.29814453 -1.09433594 6.39902344 -1.09765625 5.47265625 C-1.10289307 4.64000244 -1.10812988 3.80734863 -1.11352539 2.94946289 C-1 1 -1 1 0 0 Z " fill="#256AA4" transform="translate(41,34)"/>
<path d="M0 0 C0.66 0.33 1.32 0.66 2 1 C2 3 2 3 0.375 5.1875 C-2 7 -2 7 -5.25 6.75 C-6.1575 6.5025 -7.065 6.255 -8 6 C-5.63404067 3.38499232 -3.13950774 1.61000397 0 0 Z " fill="#CD187F" transform="translate(36,13)"/>
<path d="M0 0 C2.64 1.65 5.28 3.3 8 5 C5 7 5 7 2 8 C0.23537317 4.91190305 0 3.76687864 0 0 Z " fill="#682476" transform="translate(21,22)"/>
<path d="M0 0 C0.99 0.33 1.98 0.66 3 1 C5.63804589 0.60602665 5.63804589 0.60602665 8 0 C4.4912812 3.09592835 1.50802601 4.74194623 -3 6 C-3 5.34 -3 4.68 -3 4 C-2.01 4 -1.02 4 0 4 C-0.33 3.01 -0.66 2.02 -1 1 C-0.67 0.67 -0.34 0.34 0 0 Z " fill="#85C646" transform="translate(90,23)"/>
<path d="M0 0 C0.598125 0.763125 1.19625 1.52625 1.8125 2.3125 C3.46959332 4.3483575 5.10297674 6.1978279 7 8 C2.69235185 6.43358249 -1.06171464 4.31663844 -5 2 C-4.34 1.67 -3.68 1.34 -3 1 C-2.34 1.33 -1.68 1.66 -1 2 C-0.67 1.34 -0.34 0.68 0 0 Z M2 2 C4 3 4 3 4 3 Z " fill="#98B945" transform="translate(10,89)"/>
<path d="M0 0 C-0.99 1.485 -0.99 1.485 -2 3 C-1.01 3 -0.02 3 1 3 C1.33 3.99 1.66 4.98 2 6 C-1.0831351 4.80100302 -4.06279492 3.52299523 -7 2 C-7 1.34 -7 0.68 -7 0 C-2.25 -1.125 -2.25 -1.125 0 0 Z " fill="#A3B949" transform="translate(67,44)"/>
<path d="M0 0 C0.90492187 0.30744141 0.90492187 0.30744141 1.828125 0.62109375 C3.02695312 1.02521484 3.02695312 1.02521484 4.25 1.4375 C5.03890625 1.70433594 5.8278125 1.97117187 6.640625 2.24609375 C8.74821988 2.91954708 10.84753973 3.49150595 13 4 C12.67 5.32 12.34 6.64 12 8 C9.99743426 6.85865673 7.99800203 5.71181367 6 4.5625 C4.88625 3.92441406 3.7725 3.28632813 2.625 2.62890625 C1.75875 2.09136719 0.8925 1.55382812 0 1 C0 0.67 0 0.34 0 0 Z " fill="#EE5937" transform="translate(46,14)"/>
<path d="M0 0 C0.33 0.66 0.66 1.32 1 2 C-1.77079887 5.80984844 -5.62868145 6.06840752 -10 7 C-7.0094833 3.66442368 -4.06815373 1.84916079 0 0 Z " fill="#85C64D" transform="translate(19,76)"/>
<path d="M0 0 C0 0.66 0 1.32 0 2 C-0.99 2 -1.98 2 -3 2 C-3.66 3.98 -4.32 5.96 -5 8 C-5.99 7.67 -6.98 7.34 -8 7 C-7.8125 5.1875 -7.8125 5.1875 -7 3 C-2.82142857 0 -2.82142857 0 0 0 Z " fill="#1B9BCD" transform="translate(50,59)"/>
<path d="M0 0 C0.66 0.33 1.32 0.66 2 1 C1.67 1.99 1.34 2.98 1 4 C1.99 4.33 2.98 4.66 4 5 C4 5.66 4 6.32 4 7 C-0.75 5.125 -0.75 5.125 -3 4 C-2.67 3.01 -2.34 2.02 -2 1 C-1.34 0.67 -0.68 0.34 0 0 Z " fill="#1B9847" transform="translate(84,31)"/>
<path d="M0 0 C0.66 0.33 1.32 0.66 2 1 C1.67 1.66 1.34 2.32 1 3 C2.65 2.67 4.3 2.34 6 2 C5.34 3.32 4.68 4.64 4 6 C1.5625 5.1875 1.5625 5.1875 -1 4 C-1.33 3.01 -1.66 2.02 -2 1 C-1.34 0.67 -0.68 0.34 0 0 Z " fill="#C51986" transform="translate(24,20)"/>
<path d="M0 0 C0.33 0.66 0.66 1.32 1 2 C2.32 2 3.64 2 5 2 C5 1.34 5 0.68 5 0 C6.32 0.33 7.64 0.66 9 1 C6.03 2.65 3.06 4.3 0 6 C0 4.02 0 2.04 0 0 Z " fill="#C91F75" transform="translate(59,93)"/>
<path d="M0 0 C0 0.66 0 1.32 0 2 C-0.99 2 -1.98 2 -3 2 C-3 2.66 -3 3.32 -3 4 C-3.66 4 -4.32 4 -5 4 C-4.67 4.99 -4.34 5.98 -4 7 C-6.475 6.01 -6.475 6.01 -9 5 C-2.87096774 0 -2.87096774 0 0 0 Z " fill="#89C052" transform="translate(9,83)"/>
<path d="M0 0 C0.33 0 0.66 0 1 0 C1.33 1.98 1.66 3.96 2 6 C-0.31 5.34 -2.62 4.68 -5 4 C-5 3.34 -5 2.68 -5 2 C-5.66 1.67 -6.32 1.34 -7 1 C-5.824375 1.309375 -5.824375 1.309375 -4.625 1.625 C-3.75875 1.74875 -2.8925 1.8725 -2 2 C-1.34 1.34 -0.68 0.68 0 0 Z " fill="#CB5042" transform="translate(58,38)"/>
<path d="M0 0 C0 0.99 0 1.98 0 3 C-1.28650706 3.69710731 -2.57940665 4.38242876 -3.875 5.0625 C-4.95394531 5.63677734 -4.95394531 5.63677734 -6.0546875 6.22265625 C-6.69664063 6.47917969 -7.33859375 6.73570313 -8 7 C-8.66 6.67 -9.32 6.34 -10 6 C-8.70903219 5.18639005 -7.41720125 4.37414954 -6.125 3.5625 C-5.04605469 2.88380859 -5.04605469 2.88380859 -3.9453125 2.19140625 C-2 1 -2 1 0 0 Z " fill="#E5A21E" transform="translate(36,89)"/>
<path d="M0 0 C2.97 0.495 2.97 0.495 6 1 C6 1.66 6 2.32 6 3 C7.32 3.33 8.64 3.66 10 4 C10 4.66 10 5.32 10 6 C6.40992874 4.66654496 3.20429093 3.1056769 0 1 C0 0.67 0 0.34 0 0 Z " fill="#DF983D" transform="translate(19,98)"/>
<path d="M0 0 C1.98 0.99 1.98 0.99 4 2 C3.67 3.32 3.34 4.64 3 6 C2.01 6 1.02 6 0 6 C0 4.02 0 2.04 0 0 Z " fill="#C5177F" transform="translate(72,84)"/>
<path d="M0 0 C1.875 0.1875 1.875 0.1875 4 1 C5.25 3.5625 5.25 3.5625 6 6 C3.5625 5.25 3.5625 5.25 1 4 C0.1875 1.875 0.1875 1.875 0 0 Z " fill="#1A9AD1" transform="translate(47,66)"/>
<path d="M0 0 C3.77545388 1.09068668 6.47043472 1.9083091 9 5 C7.35 5 5.7 5 4 5 C4 4.34 4 3.68 4 3 C2.68 3 1.36 3 0 3 C0 2.01 0 1.02 0 0 Z " fill="#488DB5" transform="translate(44,36)"/>
<path d="M0 0 C-2.17424117 2.50037734 -3.73045798 3.43628586 -7 4 C-6.6875 2.0625 -6.6875 2.0625 -6 0 C-3 -1 -3 -1 0 0 Z " fill="#1C983B" transform="translate(19,76)"/>
<path d="M0 0 C-0.33 1.65 -0.66 3.3 -1 5 C-3.475 4.01 -3.475 4.01 -6 3 C-3.375 0 -3.375 0 0 0 Z " fill="#DD662E" transform="translate(60,1)"/>
</svg>
